<svg width="126" height="36" viewBox="0 0 126 36" fill="none" xmlns="http://www.w3.org/2000/svg">
<path d="M28.3443 4.56709V11.8025L19.3606 16.8211V6.76608L25.8194 3.21932C26.0704 3.07857 26.3546 3.00306 26.6446 3.00009C26.9345 2.99713 27.2204 3.06681 27.4744 3.20239C27.7284 3.33798 27.9419 3.53486 28.0944 3.77395C28.2468 4.01305 28.3329 4.28625 28.3443 4.56709Z" fill="#0EA5EA"/>
<path opacity="0.3" d="M10.3769 4.56709V11.8025L19.3606 16.8211V6.76608L12.9018 3.21932C12.6508 3.07857 12.3666 3.00306 12.0766 3.00009C11.7866 2.99713 11.5008 3.06681 11.2468 3.20239C10.9928 3.33798 10.7793 3.53486 10.6269 3.77395C10.4744 4.01305 10.3883 4.28625 10.3769 4.56709Z" fill="#0EA5EA"/>
<path d="M26.5442 32.9728L20.2627 29.3821L20.3639 19.0921L29.0934 24.0821L28.9674 31.4495C28.965 31.7373 28.8895 32.0216 28.7482 32.2748C28.6068 32.528 28.4045 32.7415 28.1607 32.8948C27.917 33.048 27.6401 33.1357 27.3568 33.1494C27.0736 33.163 26.7937 33.1022 26.5442 32.9728Z" fill="#0EA5EA"/>
<path opacity="0.3" d="M35.4609 17.374L29.1793 13.7833L20.3639 19.0921L29.0934 24.0821L35.3779 20.2349C35.6246 20.0868 35.8313 19.8775 35.9777 19.6273C36.1242 19.377 36.2056 19.0943 36.2139 18.8065C36.2223 18.5187 36.1573 18.2356 36.0254 17.9846C35.8934 17.7336 35.699 17.5233 35.4609 17.374Z" fill="#0EA5EA"/>
<path opacity="0.3" d="M11.6704 32.9728L17.9519 29.3821L17.8507 19.0921L9.12119 24.0821L9.24727 31.4495C9.24964 31.7373 9.32514 32.0216 9.46646 32.2748C9.60779 32.528 9.81013 32.7415 10.0539 32.8948C10.2977 33.048 10.5746 33.1357 10.8578 33.1494C11.141 33.163 11.4209 33.1022 11.6704 32.9728Z" fill="#0EA5EA"/>
<path d="M2.75377 17.374L9.03532 13.7833L17.8507 19.0921L9.12119 24.0821L2.83673 20.2349C2.58997 20.0868 2.38335 19.8775 2.23688 19.6273C2.09041 19.377 2.00906 19.0943 2.00071 18.8065C1.99237 18.5187 2.05731 18.2356 2.18925 17.9846C2.32118 17.7336 2.51564 17.5233 2.75377 17.374Z" fill="#0EA5EA"/>
</svg>
